<mxfile host="app.diagrams.net" modified="2023-09-22T17:40:44.672Z" agent="Mozilla/5.0 (Windows NT 10.0; Win64; x64) AppleWebKit/537.36 (KHTML, like Gecko) Chrome/116.0.0.0 Safari/537.36" etag="rn34tB4HeX9tdPO1mUCk" version="21.3.7" type="device">
  <diagram name="Page-1" id="8dhB7AvJksFeR8B4dNgO">
    <mxGraphModel dx="1434" dy="758" grid="1" gridSize="10" guides="1" tooltips="1" connect="1" arrows="1" fold="1" page="1" pageScale="1" pageWidth="827" pageHeight="1169" math="0" shadow="0">
      <root>
        <mxCell id="0" />
        <mxCell id="1" parent="0" />
        <mxCell id="iO2hsEs1ZCdPtAIwdEDD-3" style="edgeStyle=orthogonalEdgeStyle;rounded=0;orthogonalLoop=1;jettySize=auto;html=1;entryX=0.5;entryY=0;entryDx=0;entryDy=0;" edge="1" parent="1" source="iO2hsEs1ZCdPtAIwdEDD-1" target="iO2hsEs1ZCdPtAIwdEDD-2">
          <mxGeometry relative="1" as="geometry" />
        </mxCell>
        <mxCell id="iO2hsEs1ZCdPtAIwdEDD-1" value="" style="shape=image;verticalLabelPosition=bottom;labelBackgroundColor=default;verticalAlign=top;aspect=fixed;imageAspect=0;image=https://seeklogo.com/images/A/autodesk-fusion-360-logo-7F72A76397-seeklogo.com.png;" vertex="1" parent="1">
          <mxGeometry x="60" y="50" width="84.9" height="90" as="geometry" />
        </mxCell>
        <mxCell id="iO2hsEs1ZCdPtAIwdEDD-2" value="" style="shape=image;verticalLabelPosition=bottom;labelBackgroundColor=default;verticalAlign=top;aspect=fixed;imageAspect=0;image=https://cdn.prusa3d.com/content/images/product/default/2280.jpg;" vertex="1" parent="1">
          <mxGeometry x="44.45" y="180" width="116" height="116" as="geometry" />
        </mxCell>
      </root>
    </mxGraphModel>
  </diagram>
</mxfile>
